<?xml version="1.0" encoding="UTF-8" standalone="no"?>
<svg
   xmlns:svg="http://www.w3.org/2000/svg"
   xmlns="http://www.w3.org/2000/svg"
   version="1.0"
   width="986"
   height="257"
   id="svg2">
  <defs
     id="defs15" />
  <circle
     cx="9.124"
     cy="46.904"
     r="9.124"
     transform="matrix(2.7337162,0,0,2.7337162,0.304685,0.2982769)"
     id="circle4"
     style="fill:#ff6309" />
  <circle
     cx="74.548"
     cy="84.667"
     r="9.124"
     transform="matrix(2.7337162,0,0,2.7337162,0.304685,0.2982769)"
     id="circle6"
     style="fill:#ffb515" />
  <path
     d="M 144.47815,66.801391 C 175.53589,66.801391 201.30391,89.863021 205.57123,119.76167 L 248.30468,119.76167 C 246.36375,96.268116 236.62352,74.371051 220.33877,57.102167 C 209.90964,62.413777 197.08578,62.514925 186.19192,56.227377 C 175.28986,49.931629 168.96404,38.767132 168.35715,27.066827 C 160.618,25.262574 152.62188,24.327643 144.47815,24.327643 C 128.88503,24.327643 113.81679,27.731119 100.11266,34.185424 L 121.50673,71.240947 C 128.61165,68.38148 136.36448,66.801391 144.47815,66.801391 L 144.47815,66.801391 z"
     id="path19"
     style="fill:#ff6309" />
  <path
     d="M 205.57397,137.252 C 201.31757,167.16158 175.54409,190.23689 144.47815,190.23689 C 136.359,190.23689 128.60345,188.6568 121.49853,185.79186 L 100.10173,222.85012 C 113.80311,229.30716 128.87683,232.71336 144.47541,232.71336 C 152.62462,232.71336 160.63168,231.77296 168.37356,229.96871 C 168.96951,218.25474 175.29806,207.0711 186.20832,200.77262 C 197.10492,194.47961 209.93424,194.58076 220.36611,199.9033 C 236.63719,182.63169 246.36648,160.73735 248.30195,137.252 L 205.57397,137.25199 L 205.57397,137.25199 z"
     id="path21"
     style="fill:#c90016" />
  <path
     d="M 82.761768,128.5205 C 82.761768,108.85688 92.004461,91.314626 106.37014,80.005237 L 84.981542,42.955185 C 79.965173,46.45981 75.219447,50.426432 70.799026,54.844117 C 58.420758,67.222384 49.544382,82.167607 44.659231,98.479697 C 54.500609,104.85472 61.017788,115.92081 61.017788,128.5205 C 61.017788,141.11747 54.500609,152.18628 44.659231,158.55858 C 49.544382,174.87067 58.420758,189.81589 70.799026,202.19415 C 75.216713,206.61184 79.956972,210.573 84.970608,214.08036 L 106.36194,177.02757 C 91.998994,165.71818 82.761768,148.17592 82.761768,128.5205 z"
     id="path10"
     style="fill:#ffb515" />
  <circle
     cx="74.54"
     cy="9.1260004"
     r="9.124"
     transform="matrix(2.7337162,0,0,2.7337162,0.304685,0.2982769)"
     id="circle12"
     style="fill:#c90016" />
  <path
     d="M 403.78567,128.11265 L 403.78567,80.105111 C 403.78567,72.831251 397.96658,67.012151 390.69271,67.012151 C 383.41885,67.012151 377.59974,72.831251 377.59974,80.105111 L 377.59974,128.11265 C 377.59974,145.56992 370.32586,151.38904 357.2329,151.38904 C 344.13995,151.38904 336.86607,145.56992 336.86607,128.11265 L 336.86607,80.105111 C 336.86607,72.831251 331.04697,67.012151 323.7731,67.012151 C 316.49925,67.012151 310.68015,72.831251 310.68015,80.105111 L 310.68015,128.11265 C 310.68015,163.02719 331.04701,177.57497 357.2329,177.57497 C 383.41881,177.57497 403.78567,163.02719 403.78567,128.11265 M 525.98668,128.11265 C 525.98668,78.650391 505.61982,67.012151 479.43393,67.012151 C 466.34096,67.012151 459.06709,72.831241 459.06709,72.831241 L 459.06709,39.371441 C 459.06709,21.91416 432.88115,21.91416 432.88115,39.371441 L 432.88115,128.11265 C 432.88115,163.02719 453.24801,177.57497 479.43393,177.57497 C 505.61982,177.57497 525.98668,163.02719 525.98668,128.11265 M 459.06709,125.20311 C 459.06709,94.652881 473.61483,91.743301 479.43393,91.743301 C 488.16256,91.743301 499.80075,99.017201 499.80075,125.20311 C 499.80075,142.66038 492.52687,154.29859 479.43393,154.29859 C 466.34096,154.29859 459.06709,142.66038 459.06709,125.20311 M 648.1877,128.11265 L 648.1877,80.105111 C 648.1877,72.831251 642.36859,67.012151 635.09474,67.012151 C 627.82087,67.012151 622.00176,72.831251 622.00176,80.105111 L 622.00176,128.11265 C 622.00176,145.56992 614.72788,151.38904 601.63493,151.38904 C 588.54198,151.38904 581.26809,145.56992 581.26809,128.11265 L 581.26809,80.105111 C 581.26809,72.831251 575.449,67.012151 568.17513,67.012151 C 560.90126,67.012151 555.08217,72.831251 555.08217,80.105111 L 555.08217,128.11265 C 555.08217,163.02719 575.44903,177.57497 601.63493,177.57497 C 627.82083,177.57497 648.1877,163.02719 648.1877,128.11265 M 677.28318,116.47446 L 677.28318,164.482 C 677.28318,171.75587 683.10227,177.57497 690.37613,177.57497 C 697.65,177.57497 703.4691,171.75587 703.4691,164.482 L 703.4691,116.47446 C 703.4691,99.017191 710.74298,93.198081 723.83593,93.198081 C 736.92889,93.198081 744.20277,99.017191 744.20277,116.47446 L 744.20277,164.482 C 744.20277,171.75587 750.02187,177.57497 757.29573,177.57497 C 764.5696,177.57497 770.3887,171.75587 770.3887,164.482 L 770.3887,116.47446 C 770.3887,81.559921 750.02184,67.012151 723.83593,67.012151 C 697.65003,67.012151 677.28318,81.559921 677.28318,116.47446 M 808.21283,67.012151 C 792.21033,67.012151 792.21033,90.288531 808.21283,90.288531 L 812.57716,90.288531 L 812.57716,140.91466 C 812.57716,168.55534 819.41462,177.57497 842.98193,177.57497 C 854.32916,177.57497 870.91359,175.53827 870.91359,163.90009 C 870.91359,156.62623 864.22163,154.73502 862.33042,154.73502 C 858.25706,154.73502 854.0382,156.48075 849.38293,156.48075 C 841.23621,156.48075 838.76308,152.40737 838.76308,138.7325 L 838.76308,90.288531 L 850.40127,90.288531 C 866.40377,90.288531 866.40377,67.012151 850.40127,67.012151 L 838.76308,67.012151 L 838.76308,39.371441 C 838.76308,21.91416 812.57716,21.91416 812.57716,39.371441 L 812.57716,67.012151 L 808.21283,67.012151 M 985.69531,128.11265 L 985.69531,80.105111 C 985.69531,72.831251 979.87622,67.012151 972.60231,67.012151 C 965.32852,67.012151 959.50942,72.831251 959.50942,80.105111 L 959.50942,128.11265 C 959.50942,145.56992 952.23551,151.38904 939.14251,151.38904 C 926.04957,151.38904 918.77568,145.56992 918.77568,128.11265 L 918.77568,80.105111 C 918.77568,72.831251 912.95657,67.012151 905.68272,67.012151 C 898.40886,67.012151 892.58974,72.831251 892.58974,80.105111 L 892.58974,128.11265 C 892.58974,163.02719 912.95661,177.57497 939.14251,177.57497 C 965.32852,177.57497 985.69531,163.02719 985.69531,128.11265"
     id="Ubuntu" />
</svg>