<?xml version="1.0" encoding="UTF-8" standalone="no"?>
<!-- Created with Inkscape (http://www.inkscape.org/) -->

<svg
   xmlns:dc="http://purl.org/dc/elements/1.1/"
   xmlns:cc="http://creativecommons.org/ns#"
   xmlns:rdf="http://www.w3.org/1999/02/22-rdf-syntax-ns#"
   xmlns:svg="http://www.w3.org/2000/svg"
   xmlns="http://www.w3.org/2000/svg"
   xmlns:sodipodi="http://sodipodi.sourceforge.net/DTD/sodipodi-0.dtd"
   xmlns:inkscape="http://www.inkscape.org/namespaces/inkscape"
   width="32"
   height="32"
   id="svg4308"
   version="1.1"
   inkscape:version="0.48.3.1 r9886"
   sodipodi:docname="rss.svg">
  <defs
     id="defs4310" />
  <sodipodi:namedview
     id="base"
     pagecolor="#ffffff"
     bordercolor="#666666"
     borderopacity="1.0"
     inkscape:pageopacity="0.0"
     inkscape:pageshadow="2"
     inkscape:zoom="1.4"
     inkscape:cx="6.4029276"
     inkscape:cy="8.2167591"
     inkscape:document-units="px"
     inkscape:current-layer="layer1"
     showgrid="false"
     fit-margin-top="0"
     fit-margin-left="0"
     fit-margin-right="0"
     fit-margin-bottom="0"
     inkscape:window-width="472"
     inkscape:window-height="413"
     inkscape:window-x="1206"
     inkscape:window-y="608"
     inkscape:window-maximized="0" />
  <metadata
     id="metadata4313">
    <rdf:RDF>
      <cc:Work
         rdf:about="">
        <dc:format>image/svg+xml</dc:format>
        <dc:type
           rdf:resource="http://purl.org/dc/dcmitype/StillImage" />
        <dc:title></dc:title>
      </cc:Work>
    </rdf:RDF>
  </metadata>
  <g
     inkscape:label="Layer 1"
     inkscape:groupmode="layer"
     id="layer1"
     transform="translate(-417.71429,-558.36218)">
    <g
       style="fill:#4d4d4d;fill-rule:evenodd"
       id="g4277"
       transform="matrix(0.00298374,0,0,0.00298374,423.72025,566.23895)">
      <g
         id="Livello_x0020_1"
         style="fill:#4d4d4d">
        <metadata
           id="CorelCorpID_0Corel-Layer" />
        <path
           id="path4270"
           d="M 6701,645 C 6454,754 6189,828 5911,861 6195,691 6413,421 6515,100 6249,258 5955,372 5642,434 5391,167 5034,0 4638,0 3879,0 3263,616 3263,1375 c 0,108 12,213 36,313 C 2156,1631 1143,1083 465,251 347,454 279,690 279,942 c 0,477 243,898 612,1144 -225,-7 -437,-69 -623,-172 0,6 0,11 0,17 0,666 474,1222 1103,1348 -115,31 -237,48 -362,48 -89,0 -175,-9 -259,-25 175,546 683,944 1284,955 -471,369 -1063,589 -1708,589 -111,0 -220,-7 -328,-19 608,390 1331,618 2108,618 2529,0 3912,-2095 3912,-3912 0,-60 -1,-119 -4,-178 269,-194 502,-436 686,-712 z"
           class="fil0"
           inkscape:connector-curvature="0"
           style="fill:#4d4d4d" />
      </g>
    </g>
    <path
       sodipodi:nodetypes="ssssssssss"
       inkscape:connector-curvature="0"
       id="path4284"
       d="m 433.69865,558.36218 c -8.83334,0 -15.98436,7.16829 -15.98436,15.98439 0,8.81609 7.15102,16.01561 15.98436,16.01561 8.83334,0 16.01564,-7.19952 16.01564,-16.01561 0,-8.8161 -7.1823,-15.98439 -16.01564,-15.98439 z m 0,1.99805 c 7.7514,0 14.01368,6.25007 14.01368,13.98634 0,7.73628 -6.26228,14.01756 -14.01368,14.01756 -7.7514,0 -13.9824,-6.28128 -13.9824,-14.01756 0,-7.73627 6.231,-13.98634 13.9824,-13.98634 z"
       style="fill:#4d4d4d;fill-opacity:1"
       inkscape:export-filename="/home/jon/Documents/Websites/jonrogers redesign/twitter.png"
       inkscape:export-xdpi="75"
       inkscape:export-ydpi="75" />
  </g>
</svg>
